<svg id="svg" version="1.1" xmlns="http://www.w3.org/2000/svg" xmlns:xlink="http://www.w3.org/1999/xlink" width="400" height="300" viewBox="0, 0, 400,300"><g id="svgg"><path id="path0" d="M71.493 22.654 C 71.000 23.214,71.020 23.406,71.568 23.406 C 71.815 23.406,72.018 23.349,72.018 23.280 C 72.018 23.211,72.100 22.941,72.200 22.680 C 72.425 22.094,72.000 22.079,71.493 22.654 M333.683 22.469 C 333.683 22.846,334.564 23.526,334.777 23.313 C 334.875 23.215,334.746 22.925,334.491 22.670 C 333.969 22.149,333.683 22.077,333.683 22.469 M334.284 38.877 C 334.284 39.713,334.400 40.173,334.584 40.060 C 334.749 39.958,334.884 39.342,334.884 38.692 C 334.884 38.042,334.749 37.509,334.584 37.509 C 334.419 37.509,334.284 38.125,334.284 38.877 M92.498 43.410 C 92.199 43.530,92.123 66.046,92.123 154.581 C 92.123 228.519,92.223 265.540,92.423 265.416 C 92.622 265.293,92.723 228.004,92.723 154.521 L 92.723 43.811 203.433 43.811 C 276.916 43.811,314.205 43.710,314.329 43.511 C 314.519 43.204,93.259 43.102,92.498 43.410 M334.284 48.462 C 334.284 49.710,334.395 50.379,334.584 50.263 C 334.749 50.161,334.884 49.350,334.884 48.462 C 334.884 47.574,334.749 46.764,334.584 46.662 C 334.395 46.545,334.284 47.215,334.284 48.462 M71.118 276.519 C 71.118 278.220,71.239 279.370,71.418 279.370 C 71.597 279.370,71.718 278.220,71.718 276.519 C 71.718 274.819,71.597 273.668,71.418 273.668 C 71.239 273.668,71.118 274.819,71.118 276.519 M71.118 283.871 C 71.118 284.531,71.253 285.071,71.418 285.071 C 71.583 285.071,71.718 284.531,71.718 283.871 C 71.718 283.211,71.583 282.671,71.418 282.671 C 71.253 282.671,71.118 283.211,71.118 283.871 M333.983 285.221 C 333.578 285.710,333.675 285.771,334.409 285.489 C 334.670 285.389,334.884 285.187,334.884 285.039 C 334.884 284.624,334.397 284.722,333.983 285.221 M72.393 285.578 C 72.682 285.654,73.155 285.654,73.443 285.578 C 73.732 285.503,73.496 285.441,72.918 285.441 C 72.341 285.441,72.104 285.503,72.393 285.578 " stroke="none" fill="#9ca4a5" fill-rule="evenodd"></path><path id="path1" d="M71.867 148.237 C 71.867 216.647,71.901 244.632,71.943 210.428 C 71.985 176.223,71.985 120.251,71.943 86.047 C 71.901 51.842,71.867 79.827,71.867 148.237 M334.109 30.458 C 334.109 33.593,334.153 34.835,334.207 33.218 C 334.261 31.600,334.261 29.034,334.207 27.516 C 334.153 25.998,334.108 27.322,334.109 30.458 M334.080 43.211 C 334.080 44.284,334.134 44.722,334.201 44.186 C 334.267 43.650,334.267 42.772,334.201 42.236 C 334.134 41.699,334.080 42.138,334.080 43.211 M148.186 43.136 C 178.774 43.178,228.736 43.178,259.214 43.136 C 289.692 43.094,264.666 43.059,203.601 43.059 C 142.536 43.059,117.599 43.094,148.186 43.136 M314.179 74.551 C 314.179 94.721,314.282 105.355,314.479 105.476 C 314.678 105.600,314.779 95.277,314.779 74.736 C 314.779 54.319,314.677 43.811,314.479 43.811 C 314.281 43.811,314.179 54.258,314.179 74.551 M334.128 88.672 C 334.128 105.836,334.164 112.814,334.209 104.178 C 334.253 95.542,334.253 81.499,334.208 72.970 C 334.164 64.442,334.128 71.508,334.128 88.672 M314.379 106.127 C 314.040 106.465,314.140 216.054,314.479 216.054 C 314.678 216.054,314.779 197.499,314.779 160.990 C 314.779 130.705,314.734 105.926,314.679 105.926 C 314.624 105.926,314.489 106.017,314.379 106.127 M334.131 188.447 C 334.131 225.169,334.166 240.191,334.209 221.830 C 334.251 203.470,334.251 173.425,334.209 155.064 C 334.166 136.703,334.131 151.725,334.131 188.447 M250.188 125.643 C 250.559 125.715,251.167 125.715,251.538 125.643 C 251.909 125.572,251.605 125.513,250.863 125.513 C 250.120 125.513,249.816 125.572,250.188 125.643 M272.114 125.656 C 276.293 125.703,283.044 125.703,287.118 125.656 C 291.191 125.609,287.772 125.570,279.520 125.571 C 271.268 125.571,267.935 125.609,272.114 125.656 M131.278 166.542 C 131.278 186.264,131.314 194.332,131.358 184.471 C 131.402 174.610,131.402 158.473,131.358 148.612 C 131.314 138.751,131.278 146.819,131.278 166.542 M236.234 143.661 C 246.590 143.705,263.537 143.705,273.893 143.661 C 284.250 143.617,275.776 143.581,255.064 143.581 C 234.351 143.581,225.878 143.617,236.234 143.661 M236.759 164.441 C 236.759 164.639,246.562 164.741,265.566 164.741 C 284.571 164.741,294.374 164.639,294.374 164.441 C 294.374 164.243,284.571 164.141,265.566 164.141 C 246.562 164.141,236.759 164.243,236.759 164.441 M251.088 182.671 C 259.051 182.715,272.082 182.715,280.045 182.671 C 288.008 182.626,281.493 182.590,265.566 182.590 C 249.640 182.590,243.125 182.626,251.088 182.671 M314.179 236.291 C 314.179 245.658,314.285 250.893,314.479 251.013 C 314.677 251.135,314.779 246.215,314.779 236.477 C 314.779 226.863,314.675 221.755,314.479 221.755 C 314.283 221.755,314.179 226.801,314.179 236.291 M314.379 251.663 C 314.044 251.997,314.142 264.966,314.479 264.966 C 314.670 264.966,314.779 262.516,314.779 258.215 C 314.779 254.501,314.734 251.463,314.679 251.463 C 314.624 251.463,314.489 251.553,314.379 251.663 M334.113 262.266 C 334.113 266.144,334.155 267.731,334.208 265.791 C 334.260 263.852,334.260 260.679,334.208 258.740 C 334.155 256.800,334.113 258.387,334.113 262.266 M92.723 265.566 C 92.723 265.756,94.924 265.866,98.725 265.866 C 102.526 265.866,104.726 265.756,104.726 265.566 C 104.726 265.376,102.526 265.266,98.725 265.266 C 94.924 265.266,92.723 265.376,92.723 265.566 M108.627 265.565 C 108.627 265.763,143.275 265.865,211.253 265.866 C 279.510 265.866,313.878 265.766,313.878 265.567 C 313.878 265.367,279.509 265.266,211.253 265.266 C 143.275 265.266,108.627 265.367,108.627 265.565 M334.111 277.419 C 334.111 280.885,334.154 282.262,334.208 280.479 C 334.261 278.696,334.261 275.860,334.207 274.177 C 334.154 272.495,334.110 273.953,334.111 277.419 M71.536 280.154 C 71.354 280.229,71.269 280.626,71.347 281.035 C 71.563 282.166,71.868 282.141,71.868 280.992 C 71.868 280.430,71.868 279.981,71.868 279.994 C 71.868 280.007,71.719 280.079,71.536 280.154 M206.452 285.371 L 79.370 285.522 206.359 285.597 C 290.775 285.646,333.410 285.571,333.533 285.371 C 333.635 285.206,333.677 285.105,333.626 285.146 C 333.575 285.187,276.347 285.288,206.452 285.371 M76.137 285.588 C 76.670 285.654,77.615 285.655,78.238 285.590 C 78.860 285.525,78.425 285.471,77.269 285.470 C 76.114 285.468,75.605 285.522,76.137 285.588 " stroke="none" fill="#45c4cc" fill-rule="evenodd"></path><path id="path2" d="M72.318 22.506 C 72.318 22.705,116.079 22.806,203.001 22.806 C 289.922 22.806,333.683 22.705,333.683 22.506 C 333.683 22.306,289.922 22.206,203.001 22.206 C 116.079 22.206,72.318 22.306,72.318 22.506 M334.163 39.423 C 334.424 182.027,334.254 284.607,333.758 285.178 C 333.234 285.779,333.235 285.779,334.049 285.201 L 334.865 284.621 334.874 167.349 C 334.881 89.242,334.784 50.139,334.584 50.263 C 334.395 50.379,334.284 49.710,334.284 48.462 C 334.284 47.215,334.395 46.545,334.584 46.662 C 334.777 46.781,334.884 45.609,334.884 43.361 C 334.884 41.113,334.777 39.940,334.584 40.060 C 334.400 40.173,334.284 39.713,334.284 38.877 C 334.284 38.125,334.419 37.509,334.584 37.509 C 335.060 37.509,334.986 23.509,334.509 23.327 C 334.211 23.213,334.140 26.545,334.163 39.423 M71.118 148.537 C 71.118 231.758,71.218 273.668,71.418 273.668 C 71.597 273.668,71.718 274.819,71.718 276.519 C 71.718 278.220,71.597 279.370,71.418 279.370 C 71.253 279.370,71.118 279.584,71.118 279.845 C 71.118 280.106,71.287 280.264,71.493 280.196 C 71.920 280.054,72.206 273.737,71.804 273.334 C 71.674 273.204,71.635 216.917,71.718 148.252 C 71.838 48.495,71.793 23.406,71.493 23.406 C 71.193 23.406,71.118 48.632,71.118 148.537 M71.153 281.545 C 71.133 282.164,71.245 282.671,71.400 282.671 C 71.555 282.671,71.735 283.177,71.799 283.796 C 71.912 284.874,71.919 284.864,71.968 283.556 C 71.995 282.805,71.896 282.062,71.747 281.905 C 71.598 281.749,71.411 281.350,71.332 281.020 C 71.250 280.681,71.172 280.910,71.153 281.545 M72.343 285.181 C 72.693 285.490,74.761 285.683,74.580 285.390 C 74.472 285.215,73.896 285.071,73.301 285.071 C 72.705 285.071,72.274 285.121,72.343 285.181 " stroke="none" fill="#43bcc4" fill-rule="evenodd"></path><path id="path3" d="M72.018 154.089 L 72.018 285.072 202.926 284.997 L 333.833 284.921 333.909 154.014 L 333.984 23.106 203.001 23.106 L 72.018 23.106 72.018 154.089 M314.719 43.271 C 315.189 43.741,315.249 217.554,314.779 217.554 C 314.614 217.554,314.479 217.360,314.479 217.122 C 314.479 216.884,314.344 216.606,314.179 216.504 C 313.987 216.386,313.878 217.301,313.878 219.037 C 313.878 220.649,314.001 221.755,314.179 221.755 C 314.344 221.755,314.479 221.283,314.479 220.705 C 314.479 220.128,314.614 219.655,314.779 219.655 C 315.307 219.655,315.180 265.208,314.650 265.738 C 314.081 266.307,108.134 266.245,108.240 265.677 C 108.320 265.250,106.707 264.910,105.747 265.150 C 105.351 265.250,105.026 265.519,105.026 265.749 C 105.026 266.315,92.747 266.370,92.183 265.806 C 91.645 265.268,91.660 43.971,92.198 43.360 C 92.712 42.776,314.135 42.687,314.719 43.271 M110.328 104.626 C 109.948 105.006,110.129 106.463,110.578 106.635 C 111.278 106.904,111.261 203.151,110.560 203.151 C 110.299 203.151,110.181 203.295,110.294 203.477 C 110.439 203.712,110.587 203.712,110.822 203.477 C 111.321 202.977,131.038 203.025,131.217 203.526 C 131.290 203.732,131.447 203.811,131.566 203.702 C 131.684 203.592,131.567 203.177,131.306 202.778 C 130.601 201.702,130.726 127.682,131.433 127.682 C 131.784 127.682,131.865 128.012,131.799 129.182 C 131.741 130.232,131.803 130.551,132.007 130.243 C 132.242 129.888,132.361 129.968,132.624 130.659 C 132.977 131.586,132.769 132.138,132.333 131.433 C 132.186 131.195,131.957 131.116,131.824 131.258 C 131.692 131.399,131.752 131.575,131.958 131.649 C 132.169 131.724,132.333 132.282,132.333 132.921 C 132.333 133.567,132.528 134.222,132.783 134.434 C 133.031 134.639,133.233 134.993,133.233 135.221 C 133.233 135.480,133.569 135.634,134.134 135.634 C 134.629 135.634,135.034 135.783,135.034 135.966 C 135.034 136.149,134.857 136.230,134.640 136.147 C 134.363 136.041,134.226 136.348,134.177 137.190 C 134.119 138.172,134.215 138.412,134.720 138.544 C 135.191 138.667,135.334 138.949,135.334 139.755 C 135.334 140.713,135.399 140.793,136.084 140.662 C 136.497 140.583,136.834 140.635,136.834 140.777 C 136.834 140.919,136.699 141.035,136.534 141.035 C 136.369 141.035,136.234 141.643,136.234 142.386 C 136.234 143.386,136.351 143.736,136.684 143.736 C 136.987 143.736,137.134 144.039,137.134 144.664 C 137.134 145.340,137.297 145.635,137.734 145.750 C 138.160 145.861,138.335 146.159,138.335 146.772 C 138.335 147.546,138.437 147.638,139.310 147.646 C 140.185 147.655,140.231 147.697,139.760 148.055 C 139.096 148.558,139.021 150.638,139.666 150.638 C 139.933 150.638,140.133 151.009,140.191 151.613 C 140.272 152.457,140.396 152.587,141.110 152.576 C 141.564 152.570,141.935 152.671,141.935 152.801 C 141.935 152.932,141.800 153.038,141.635 153.038 C 141.470 153.038,141.335 153.646,141.335 154.389 C 141.335 155.389,141.452 155.739,141.785 155.739 C 142.103 155.739,142.236 156.060,142.236 156.827 C 142.236 157.875,142.268 157.908,143.136 157.734 C 143.644 157.633,144.036 157.682,144.036 157.847 C 144.036 158.008,143.833 158.140,143.586 158.140 C 142.832 158.140,142.971 160.553,143.736 160.753 C 144.161 160.864,144.336 161.163,144.336 161.775 C 144.336 162.344,144.490 162.641,144.786 162.641 C 145.103 162.641,145.236 162.961,145.236 163.726 C 145.236 164.724,145.297 164.800,145.994 164.666 C 146.845 164.504,147.331 164.947,146.606 165.226 C 145.870 165.508,145.975 167.456,146.737 167.655 C 147.188 167.773,147.337 168.064,147.337 168.827 C 147.337 169.530,147.476 169.842,147.787 169.842 C 148.087 169.842,148.237 170.143,148.237 170.743 C 148.237 171.543,148.337 171.643,149.137 171.643 C 150.086 171.643,150.350 172.059,149.587 172.352 C 148.880 172.623,148.999 174.364,149.737 174.557 C 150.188 174.675,150.338 174.966,150.338 175.729 C 150.338 176.631,150.430 176.747,151.163 176.768 C 151.617 176.781,151.819 176.860,151.613 176.943 C 151.060 177.166,151.111 179.745,151.669 179.745 C 151.936 179.745,152.136 180.116,152.194 180.720 C 152.277 181.578,152.388 181.689,153.113 181.639 C 153.567 181.608,153.938 181.709,153.938 181.864 C 153.938 182.019,153.803 182.146,153.638 182.146 C 153.473 182.146,153.338 182.753,153.338 183.496 C 153.338 184.496,153.455 184.846,153.788 184.846 C 154.089 184.846,154.239 185.146,154.239 185.746 C 154.239 186.329,154.391 186.647,154.670 186.647 C 154.937 186.647,155.137 187.018,155.195 187.622 C 155.276 188.466,155.399 188.596,156.114 188.585 C 156.594 188.578,156.939 188.735,156.939 188.960 C 156.939 189.173,156.804 189.347,156.639 189.347 C 156.474 189.347,156.339 189.887,156.339 190.548 C 156.339 191.415,156.464 191.748,156.789 191.748 C 157.107 191.748,157.239 192.069,157.239 192.836 C 157.239 193.884,157.272 193.917,158.140 193.743 C 158.647 193.642,159.040 193.691,159.040 193.856 C 159.040 194.017,158.837 194.149,158.590 194.149 C 157.836 194.149,157.975 196.562,158.740 196.762 C 159.165 196.873,159.340 197.172,159.340 197.784 C 159.340 198.353,159.494 198.650,159.790 198.650 C 160.107 198.650,160.240 198.970,160.240 199.735 C 160.240 200.733,160.301 200.809,160.997 200.675 C 161.849 200.513,162.334 200.956,161.609 201.235 C 161.132 201.418,160.992 202.416,161.322 203.276 C 161.525 203.803,163.541 203.962,163.541 203.451 C 163.541 203.257,167.042 203.151,173.443 203.151 C 180.221 203.151,183.346 203.251,183.346 203.469 C 183.346 204.406,185.597 203.596,185.690 202.626 C 185.749 202.022,185.949 201.650,186.216 201.650 C 186.491 201.650,186.647 201.337,186.647 200.785 C 186.647 200.172,186.822 199.874,187.247 199.763 C 187.998 199.567,188.119 197.535,187.397 197.258 C 186.586 196.947,186.925 196.560,187.847 196.744 C 188.715 196.918,188.747 196.885,188.747 195.836 C 188.747 195.070,188.880 194.749,189.197 194.749 C 189.531 194.749,189.647 194.399,189.647 193.398 C 189.647 192.570,189.512 192.048,189.297 192.048 C 189.105 192.048,189.044 191.951,189.163 191.832 C 189.282 191.713,189.676 191.612,190.038 191.607 C 190.561 191.600,190.717 191.395,190.792 190.623 C 190.850 190.019,191.050 189.647,191.317 189.647 C 191.596 189.647,191.748 189.330,191.748 188.747 C 191.748 188.147,191.898 187.847,192.198 187.847 C 192.531 187.847,192.648 187.497,192.648 186.497 C 192.648 185.754,192.513 185.146,192.348 185.146 C 192.183 185.146,192.048 185.020,192.048 184.865 C 192.048 184.710,192.419 184.609,192.873 184.640 C 193.599 184.689,193.710 184.579,193.792 183.721 C 193.851 183.117,194.051 182.746,194.318 182.746 C 194.875 182.746,194.927 180.167,194.374 179.944 C 194.167 179.860,194.370 179.782,194.824 179.769 C 195.562 179.747,195.649 179.635,195.649 178.695 C 195.649 177.844,195.763 177.644,196.249 177.644 C 196.749 177.644,196.849 177.444,196.849 176.444 C 196.849 175.577,196.724 175.244,196.399 175.244 C 196.152 175.244,195.949 175.109,195.949 174.944 C 195.949 174.779,196.354 174.644,196.849 174.644 C 197.649 174.644,197.749 174.544,197.749 173.743 C 197.749 173.143,197.899 172.843,198.200 172.843 C 198.763 172.843,198.831 170.860,198.275 170.654 C 197.999 170.551,198.037 170.370,198.417 169.971 C 198.702 169.673,199.036 169.529,199.159 169.652 C 199.282 169.775,199.188 169.995,198.950 170.143 C 198.408 170.478,198.761 170.879,199.387 170.639 C 199.857 170.459,200.093 167.961,199.625 168.117 C 199.501 168.158,199.372 168.057,199.339 167.892 C 199.305 167.727,199.609 167.635,200.014 167.688 C 200.816 167.794,201.171 165.832,200.397 165.574 C 200.203 165.509,200.143 165.295,200.265 165.099 C 200.583 164.583,201.063 164.658,200.859 165.191 C 200.749 165.476,200.863 165.641,201.168 165.641 C 201.531 165.641,201.650 165.344,201.650 164.441 C 201.650 163.781,201.515 163.241,201.350 163.241 C 201.185 163.241,201.050 163.106,201.050 162.941 C 201.050 162.776,201.455 162.641,201.950 162.641 C 202.751 162.641,202.851 162.541,202.851 161.740 C 202.851 161.140,203.001 160.840,203.301 160.840 C 203.615 160.840,203.751 160.523,203.751 159.790 C 203.751 159.056,203.887 158.740,204.201 158.740 C 204.526 158.740,204.651 158.406,204.651 157.539 C 204.651 156.879,204.516 156.339,204.351 156.339 C 204.186 156.339,204.051 156.145,204.051 155.907 C 204.051 155.623,204.332 155.495,204.876 155.532 C 205.602 155.582,205.713 155.471,205.795 154.614 C 205.854 154.010,206.054 153.638,206.321 153.638 C 206.623 153.638,206.752 153.281,206.752 152.438 C 206.752 151.778,206.617 151.238,206.452 151.238 C 206.287 151.238,206.152 151.103,206.152 150.938 C 206.152 150.773,206.489 150.638,206.902 150.638 C 207.528 150.638,207.652 150.495,207.652 149.772 C 207.652 149.160,207.827 148.861,208.252 148.750 C 208.689 148.636,208.852 148.341,208.852 147.665 C 208.852 147.040,208.999 146.737,209.302 146.737 C 209.636 146.737,209.752 146.387,209.752 145.386 C 209.752 144.644,209.617 144.036,209.452 144.036 C 209.287 144.036,209.152 143.920,209.152 143.778 C 209.152 143.635,209.490 143.584,209.902 143.662 C 210.604 143.797,210.653 143.726,210.653 142.571 C 210.653 141.891,210.518 141.335,210.353 141.335 C 210.188 141.335,210.053 141.141,210.053 140.904 C 210.053 140.619,210.334 140.491,210.878 140.529 C 211.603 140.578,211.714 140.468,211.797 139.610 C 211.855 139.006,212.055 138.635,212.322 138.635 C 212.601 138.635,212.753 138.317,212.753 137.734 C 212.753 137.134,212.903 136.834,213.203 136.834 C 213.731 136.834,213.853 134.850,213.336 134.678 C 212.892 134.530,213.326 133.533,213.836 133.533 C 214.355 133.533,214.387 134.036,213.878 134.217 C 213.672 134.291,213.599 134.454,213.715 134.580 C 213.832 134.705,214.136 134.728,214.391 134.630 C 215.022 134.388,215.017 132.460,214.385 132.217 C 213.660 131.939,214.145 131.495,214.997 131.658 C 215.693 131.791,215.754 131.716,215.754 130.718 C 215.754 129.953,215.887 129.632,216.204 129.632 C 216.500 129.632,216.654 129.336,216.654 128.767 C 216.654 128.154,216.829 127.856,217.254 127.745 C 217.584 127.659,217.854 127.373,217.854 127.110 C 217.854 126.847,218.057 126.632,218.305 126.632 C 218.552 126.632,218.755 126.452,218.755 126.232 C 218.755 125.419,218.386 125.515,217.407 126.584 C 216.854 127.187,216.299 127.577,216.174 127.452 C 216.048 127.326,216.460 126.753,217.088 126.177 L 218.230 125.131 256.602 125.131 C 281.983 125.131,294.974 125.233,294.974 125.431 C 294.974 125.596,295.176 125.731,295.424 125.731 C 295.671 125.731,295.874 125.596,295.874 125.431 C 295.874 125.266,295.671 125.131,295.424 125.131 C 295.033 125.131,294.974 123.814,294.974 115.079 L 294.974 105.026 249.812 105.026 C 219.905 105.026,204.651 104.925,204.651 104.726 C 204.651 104.561,204.111 104.426,203.451 104.426 C 202.584 104.426,202.251 104.551,202.251 104.876 C 202.251 105.124,202.048 105.326,201.800 105.326 C 201.467 105.326,201.350 105.676,201.350 106.677 C 201.350 107.419,201.485 108.027,201.650 108.027 C 201.815 108.027,201.950 108.134,201.950 108.264 C 201.950 108.394,201.579 108.495,201.125 108.489 C 200.411 108.479,200.287 108.608,200.206 109.452 C 200.148 110.056,199.948 110.428,199.681 110.428 C 199.378 110.428,199.250 110.785,199.250 111.628 C 199.250 112.288,199.385 112.828,199.550 112.828 C 199.715 112.828,199.850 112.963,199.850 113.128 C 199.850 113.293,199.512 113.428,199.100 113.428 C 198.473 113.428,198.350 113.571,198.350 114.294 C 198.350 114.906,198.175 115.205,197.749 115.316 C 196.984 115.516,196.846 117.929,197.599 117.929 C 197.847 117.929,198.050 118.075,198.050 118.253 C 198.050 118.457,197.716 118.504,197.149 118.380 C 196.280 118.189,196.249 118.219,196.249 119.256 C 196.249 120.011,196.115 120.330,195.799 120.330 C 195.485 120.330,195.349 120.647,195.349 121.380 C 195.349 121.958,195.484 122.431,195.649 122.431 C 196.022 122.431,196.025 122.746,195.657 123.328 C 195.431 123.685,195.298 123.700,195.001 123.403 C 194.718 123.120,194.715 123.031,194.989 123.031 C 195.187 123.031,195.349 122.896,195.349 122.731 C 195.349 122.566,195.079 122.431,194.749 122.431 C 193.979 122.431,193.910 124.070,194.645 124.883 C 195.116 125.403,195.093 125.431,194.195 125.431 C 193.343 125.431,193.248 125.522,193.248 126.332 C 193.248 126.932,193.098 127.232,192.798 127.232 C 192.465 127.232,192.348 127.582,192.348 128.582 C 192.348 129.325,192.483 129.932,192.648 129.932 C 192.813 129.932,192.948 130.059,192.948 130.214 C 192.948 130.369,192.577 130.470,192.123 130.439 C 191.397 130.389,191.286 130.500,191.204 131.358 C 191.146 131.962,190.946 132.333,190.679 132.333 C 190.386 132.333,190.248 132.670,190.248 133.383 C 190.248 134.117,190.112 134.434,189.797 134.434 C 189.472 134.434,189.347 134.767,189.347 135.634 C 189.347 136.294,189.482 136.834,189.647 136.834 C 189.812 136.834,189.947 136.969,189.947 137.134 C 189.947 137.299,189.542 137.434,189.047 137.434 C 188.247 137.434,188.147 137.534,188.147 138.335 C 188.147 138.935,187.997 139.235,187.697 139.235 C 187.364 139.235,187.247 139.585,187.247 140.585 C 187.247 141.328,187.382 141.935,187.547 141.935 C 187.712 141.935,187.847 142.073,187.847 142.241 C 187.847 142.418,187.529 142.467,187.097 142.359 C 186.404 142.185,186.347 142.250,186.347 143.218 C 186.347 144.014,186.202 144.304,185.746 144.423 C 185.309 144.537,185.146 144.832,185.146 145.508 C 185.146 146.133,184.999 146.437,184.696 146.437 C 184.362 146.437,184.246 146.789,184.246 147.805 C 184.246 148.640,184.363 149.101,184.546 148.987 C 184.711 148.885,184.846 148.994,184.846 149.228 C 184.846 149.521,184.611 149.609,184.096 149.511 C 183.394 149.377,183.346 149.447,183.346 150.603 C 183.346 151.282,183.481 151.838,183.646 151.838 C 183.811 151.838,183.946 151.973,183.946 152.138 C 183.946 152.303,183.541 152.438,183.046 152.438 C 182.246 152.438,182.146 152.538,182.146 153.338 C 182.146 153.938,181.995 154.239,181.695 154.239 C 181.381 154.239,181.245 154.555,181.245 155.289 C 181.245 156.022,181.110 156.339,180.795 156.339 C 180.481 156.339,180.345 156.656,180.345 157.389 C 180.345 157.967,180.480 158.440,180.645 158.440 C 181.019 158.440,181.021 158.755,180.653 159.337 C 180.428 159.694,180.294 159.709,179.997 159.412 C 179.715 159.129,179.712 159.040,179.985 159.040 C 180.183 159.040,180.345 158.905,180.345 158.740 C 180.345 158.575,180.075 158.440,179.745 158.440 C 178.942 158.440,178.884 160.426,179.670 161.023 C 180.141 161.380,180.095 161.422,179.220 161.431 C 178.063 161.442,177.750 163.249,178.770 164.023 C 179.241 164.381,179.195 164.423,178.320 164.432 C 177.447 164.440,177.344 164.532,177.344 165.306 C 177.344 165.919,177.169 166.217,176.744 166.329 C 176.307 166.443,176.144 166.738,176.144 167.414 C 176.144 168.039,175.997 168.342,175.694 168.342 C 175.361 168.342,175.244 168.692,175.244 169.692 C 175.244 170.435,175.379 171.043,175.544 171.043 C 175.709 171.043,175.844 171.180,175.844 171.349 C 175.844 171.525,175.526 171.575,175.094 171.466 C 174.264 171.258,173.906 173.230,174.719 173.533 C 175.411 173.792,173.905 175.035,173.179 174.805 C 172.829 174.694,172.543 174.463,172.543 174.291 C 172.543 174.120,172.746 174.057,172.993 174.152 C 173.527 174.357,174.344 174.091,174.344 173.711 C 174.344 173.564,173.770 173.439,173.068 173.434 C 171.943 173.425,171.855 173.377,172.318 173.026 C 173.104 172.429,173.046 170.443,172.243 170.443 C 171.581 170.443,171.426 170.915,172.018 171.127 C 172.224 171.200,172.289 171.372,172.161 171.509 C 172.033 171.646,171.696 171.513,171.411 171.214 C 171.030 170.815,170.992 170.634,171.268 170.532 C 172.081 170.230,171.722 168.257,170.893 168.465 C 170.460 168.574,170.143 168.524,170.143 168.348 C 170.143 168.180,170.278 168.042,170.443 168.042 C 170.608 168.042,170.743 167.434,170.743 166.692 C 170.743 165.691,170.626 165.341,170.293 165.341 C 169.989 165.341,169.842 165.038,169.842 164.413 C 169.842 163.737,169.679 163.442,169.242 163.328 C 168.817 163.217,168.642 162.918,168.642 162.306 C 168.642 161.583,168.519 161.440,167.892 161.440 C 167.479 161.440,167.142 161.305,167.142 161.140 C 167.142 160.975,167.277 160.840,167.442 160.840 C 167.607 160.840,167.742 160.300,167.742 159.640 C 167.742 158.797,167.614 158.440,167.311 158.440 C 167.044 158.440,166.844 158.068,166.786 157.464 C 166.703 156.607,166.592 156.496,165.866 156.546 C 165.413 156.577,165.041 156.475,165.041 156.321 C 165.041 156.166,165.176 156.039,165.341 156.039 C 165.506 156.039,165.641 155.431,165.641 154.689 C 165.641 153.688,165.525 153.338,165.191 153.338 C 164.877 153.338,164.741 153.022,164.741 152.288 C 164.741 151.555,164.605 151.238,164.291 151.238 C 163.991 151.238,163.841 150.938,163.841 150.338 C 163.841 149.537,163.741 149.437,162.941 149.437 C 162.446 149.437,162.041 149.302,162.041 149.137 C 162.041 148.972,162.176 148.837,162.341 148.837 C 162.506 148.837,162.641 148.297,162.641 147.637 C 162.641 146.747,162.519 146.437,162.170 146.437 C 161.823 146.437,161.753 146.613,161.902 147.112 C 162.100 147.771,162.092 147.774,161.548 147.226 C 161.146 146.822,161.095 146.626,161.365 146.526 C 162.176 146.225,161.819 144.251,160.983 144.411 C 160.132 144.574,159.646 144.130,160.371 143.852 C 161.107 143.569,161.002 141.622,160.240 141.422 C 159.789 141.304,159.640 141.013,159.640 140.250 C 159.640 139.548,159.501 139.235,159.190 139.235 C 158.890 139.235,158.740 138.935,158.740 138.335 C 158.740 137.521,158.646 137.433,157.764 137.425 C 156.889 137.416,156.843 137.374,157.314 137.017 C 158.327 136.248,158.021 134.434,156.879 134.434 C 156.132 134.434,155.999 134.354,156.279 134.074 C 156.834 133.519,156.747 131.433,156.169 131.433 C 155.821 131.433,155.751 131.609,155.901 132.108 C 156.099 132.767,156.090 132.770,155.546 132.222 C 155.145 131.818,155.094 131.622,155.364 131.522 C 155.905 131.321,155.854 129.332,155.308 129.332 C 155.041 129.332,154.841 128.961,154.783 128.357 C 154.700 127.499,154.589 127.389,153.863 127.438 C 153.410 127.469,153.038 127.368,153.038 127.213 C 153.038 127.058,153.173 126.932,153.338 126.932 C 153.503 126.932,153.638 126.324,153.638 125.581 C 153.638 124.581,153.522 124.231,153.188 124.231 C 152.888 124.231,152.738 123.931,152.738 123.331 C 152.738 122.517,152.644 122.430,151.763 122.421 C 150.888 122.413,150.842 122.371,151.313 122.013 C 152.098 121.417,152.041 119.430,151.238 119.430 C 150.576 119.430,150.420 119.902,151.013 120.114 C 151.219 120.188,151.283 120.360,151.156 120.496 C 151.028 120.633,150.690 120.500,150.405 120.201 C 150.025 119.802,149.987 119.621,150.263 119.519 C 150.819 119.313,150.751 117.329,150.188 117.329 C 149.873 117.329,149.737 117.013,149.737 116.279 C 149.737 115.546,149.602 115.229,149.287 115.229 C 148.987 115.229,148.837 114.929,148.837 114.329 C 148.837 113.528,148.737 113.428,147.937 113.428 C 147.442 113.428,147.037 113.293,147.037 113.128 C 147.037 112.963,147.172 112.828,147.337 112.828 C 147.502 112.828,147.637 112.288,147.637 111.628 C 147.637 110.524,147.572 110.428,146.827 110.428 C 146.197 110.428,146.097 110.348,146.377 110.068 C 146.917 109.527,146.846 107.427,146.287 107.427 C 145.972 107.427,145.836 107.110,145.836 106.377 C 145.836 105.526,145.722 105.326,145.236 105.326 C 144.903 105.326,144.636 105.126,144.636 104.876 C 144.636 104.596,144.353 104.426,143.886 104.426 C 143.473 104.426,143.136 104.561,143.136 104.726 C 143.136 104.922,137.890 105.026,128.000 105.026 C 118.233 105.026,112.798 104.920,112.678 104.726 C 112.471 104.392,110.640 104.314,110.328 104.626 M144.638 105.628 C 145.020 105.959,145.239 106.324,145.125 106.438 C 145.011 106.552,144.554 106.281,144.109 105.836 C 143.173 104.900,143.604 104.732,144.638 105.628 M202.551 106.377 C 202.551 106.624,202.416 106.827,202.251 106.827 C 202.086 106.827,201.950 106.624,201.950 106.377 C 201.950 106.129,202.086 105.926,202.251 105.926 C 202.416 105.926,202.551 106.129,202.551 106.377 M146.058 108.506 C 145.952 108.612,145.662 108.496,145.415 108.248 C 145.167 108.001,145.052 107.712,145.158 107.605 C 145.264 107.499,145.553 107.615,145.801 107.863 C 146.048 108.110,146.164 108.400,146.058 108.506 M201.050 110.691 C 201.050 111.075,200.168 111.746,199.950 111.528 C 199.732 111.310,200.403 110.428,200.787 110.428 C 200.932 110.428,201.050 110.546,201.050 110.691 M149.137 116.186 C 149.137 116.581,148.455 116.334,148.306 115.885 C 148.233 115.666,148.370 115.599,148.662 115.711 C 148.923 115.811,149.137 116.025,149.137 116.186 M198.950 115.792 C 198.950 116.183,198.175 116.754,197.949 116.529 C 197.724 116.304,198.295 115.529,198.686 115.529 C 198.831 115.529,198.950 115.647,198.950 115.792 M149.952 118.415 C 149.664 118.703,148.808 117.919,149.026 117.567 C 149.134 117.391,149.399 117.463,149.680 117.744 C 149.940 118.003,150.062 118.305,149.952 118.415 M196.735 121.173 C 196.476 121.432,196.173 121.555,196.063 121.445 C 195.776 121.157,196.560 120.301,196.912 120.519 C 197.087 120.627,197.016 120.892,196.735 121.173 M152.982 125.113 C 153.057 125.338,152.944 125.450,152.719 125.375 C 152.503 125.303,152.267 125.067,152.194 124.850 C 152.119 124.625,152.232 124.512,152.457 124.587 C 152.673 124.660,152.910 124.896,152.982 125.113 M193.770 128.039 C 193.491 128.318,193.178 128.462,193.075 128.359 C 192.780 128.064,193.233 127.532,193.780 127.532 C 194.238 127.532,194.238 127.571,193.770 128.039 M215.754 129.182 C 215.542 129.438,215.301 129.579,215.218 129.497 C 215.136 129.414,215.242 129.138,215.454 128.882 C 215.666 128.627,215.907 128.485,215.989 128.568 C 216.072 128.650,215.966 128.927,215.754 129.182 M155.032 130.440 C 154.772 130.699,153.915 129.914,154.111 129.596 C 154.202 129.448,154.487 129.538,154.744 129.794 C 155.000 130.051,155.130 130.341,155.032 130.440 M191.634 133.176 C 191.374 133.435,191.078 133.563,190.975 133.460 C 190.719 133.204,191.535 132.358,191.852 132.550 C 191.991 132.635,191.893 132.916,191.634 133.176 M134.003 134.038 C 133.804 134.555,133.778 134.556,133.497 134.056 C 133.135 133.412,133.455 132.735,133.907 133.187 C 134.075 133.355,134.119 133.738,134.003 134.038 M190.686 135.239 C 190.429 135.495,190.139 135.625,190.040 135.527 C 189.781 135.267,190.566 134.410,190.884 134.606 C 191.032 134.697,190.942 134.982,190.686 135.239 M212.978 136.009 C 212.910 136.215,212.599 136.433,212.288 136.494 C 211.798 136.589,211.776 136.538,212.124 136.119 C 212.600 135.545,213.157 135.474,212.978 136.009 M135.848 138.520 C 135.561 138.808,134.705 138.024,134.923 137.672 C 135.031 137.496,135.296 137.568,135.577 137.849 C 135.836 138.108,135.958 138.410,135.848 138.520 M211.825 138.219 C 211.386 138.747,211.173 138.592,211.427 137.929 C 211.531 137.659,211.743 137.517,211.899 137.613 C 212.068 137.717,212.038 137.962,211.825 138.219 M158.983 140.116 C 159.059 140.341,158.946 140.454,158.721 140.379 C 158.504 140.307,158.268 140.070,158.196 139.854 C 158.121 139.629,158.233 139.516,158.458 139.591 C 158.675 139.663,158.911 139.900,158.983 140.116 M189.047 139.706 C 189.047 140.155,188.175 140.724,187.978 140.404 C 187.863 140.219,187.956 139.950,188.184 139.806 C 188.661 139.503,189.047 139.459,189.047 139.706 M160.240 142.308 C 160.240 142.650,159.806 142.582,159.400 142.176 C 158.826 141.602,158.983 141.295,159.640 141.705 C 159.970 141.911,160.240 142.182,160.240 142.308 M137.695 142.938 C 138.155 143.493,137.761 143.806,137.249 143.293 C 137.021 143.065,136.834 142.801,136.834 142.707 C 136.834 142.391,137.357 142.531,137.695 142.938 M216.354 143.711 C 216.354 143.862,216.523 144.065,216.729 144.161 C 217.029 144.301,217.029 144.371,216.729 144.511 C 216.433 144.649,216.354 150.761,216.354 173.593 C 216.354 196.438,216.433 202.533,216.729 202.653 C 217.013 202.768,216.997 202.880,216.663 203.112 C 216.420 203.280,216.337 203.527,216.479 203.660 C 216.620 203.792,216.797 203.732,216.870 203.526 C 216.977 203.228,225.073 203.151,255.989 203.151 L 294.974 203.151 294.974 193.206 C 294.974 184.087,295.017 183.229,295.499 182.863 C 295.999 182.484,295.999 182.464,295.499 182.455 C 295.210 182.450,294.974 182.581,294.974 182.746 C 294.974 183.361,236.526 183.137,236.346 182.521 C 236.090 181.644,236.012 164.919,236.262 164.516 C 236.561 164.034,294.826 163.959,295.124 164.441 C 295.226 164.606,295.436 164.741,295.592 164.741 C 295.747 164.741,295.874 164.606,295.874 164.441 C 295.874 164.276,295.671 164.141,295.424 164.141 C 294.730 164.141,294.747 145.993,295.441 145.605 C 296.493 145.016,295.809 143.596,294.425 143.494 C 293.687 143.439,293.173 143.532,293.173 143.719 C 293.173 143.940,281.651 144.036,255.064 144.036 C 229.857 144.036,216.954 143.934,216.954 143.736 C 216.954 143.571,216.819 143.436,216.654 143.436 C 216.489 143.436,216.354 143.560,216.354 143.711 M186.772 145.043 C 186.593 145.508,185.746 145.757,185.746 145.344 C 185.746 145.124,186.754 144.343,186.878 144.468 C 186.924 144.513,186.876 144.772,186.772 145.043 M138.797 144.956 C 139.149 145.526,138.636 145.666,138.113 145.143 C 137.645 144.676,137.644 144.636,138.103 144.636 C 138.376 144.636,138.688 144.780,138.797 144.956 M209.152 145.708 C 209.152 145.802,208.966 146.066,208.738 146.294 C 208.225 146.806,207.831 146.494,208.291 145.939 C 208.629 145.532,209.152 145.392,209.152 145.708 M186.047 146.700 C 186.047 147.072,185.167 147.758,184.959 147.549 C 184.767 147.358,185.466 146.466,185.821 146.448 C 185.945 146.442,186.047 146.555,186.047 146.700 M207.873 148.144 C 207.594 148.423,207.282 148.567,207.179 148.464 C 206.884 148.169,207.337 147.637,207.884 147.637 C 208.342 147.637,208.341 147.676,207.873 148.144 M140.950 150.523 C 140.662 150.811,139.806 150.027,140.024 149.675 C 140.132 149.499,140.397 149.571,140.678 149.852 C 140.937 150.111,141.060 150.413,140.950 150.523 M164.141 152.195 C 164.141 152.590,163.459 152.343,163.310 151.894 C 163.236 151.675,163.374 151.608,163.666 151.720 C 163.927 151.820,164.141 152.034,164.141 152.195 M205.737 153.281 C 205.478 153.540,205.181 153.668,205.078 153.565 C 204.822 153.309,205.638 152.463,205.955 152.655 C 206.095 152.740,205.997 153.021,205.737 153.281 M164.956 154.424 C 164.668 154.712,163.812 153.928,164.030 153.576 C 164.138 153.400,164.403 153.472,164.684 153.753 C 164.943 154.012,165.066 154.314,164.956 154.424 M142.693 154.953 C 142.921 155.181,143.030 155.445,142.936 155.539 C 142.762 155.712,141.935 155.027,141.935 154.710 C 141.935 154.417,142.261 154.521,142.693 154.953 M182.681 155.131 C 182.430 155.533,182.212 155.626,182.006 155.419 C 181.799 155.212,181.845 155.023,182.148 154.831 C 182.868 154.376,183.079 154.494,182.681 155.131 M181.731 157.182 C 181.472 157.441,181.175 157.569,181.072 157.466 C 180.816 157.210,181.632 156.364,181.949 156.556 C 182.089 156.641,181.991 156.922,181.731 157.182 M204.051 157.803 C 204.051 158.179,203.280 158.769,203.066 158.555 C 202.869 158.358,203.466 157.569,203.826 157.551 C 203.950 157.545,204.051 157.658,204.051 157.803 M167.011 159.570 C 166.900 159.682,166.683 159.574,166.530 159.331 C 166.082 158.622,166.199 158.355,166.727 158.883 C 166.995 159.150,167.122 159.459,167.011 159.570 M144.851 160.426 C 144.563 160.713,143.707 159.929,143.925 159.577 C 144.033 159.402,144.298 159.473,144.579 159.754 C 144.838 160.013,144.961 160.316,144.851 160.426 M202.851 160.090 C 202.645 160.338,202.342 160.540,202.177 160.540 C 202.010 160.540,202.042 160.341,202.251 160.090 C 202.456 159.842,202.759 159.640,202.924 159.640 C 203.092 159.640,203.059 159.839,202.851 160.090 M145.654 161.915 C 145.936 162.649,145.875 162.746,145.386 162.341 C 144.888 161.927,144.789 161.440,145.204 161.440 C 145.352 161.440,145.554 161.654,145.654 161.915 M168.906 163.812 C 169.133 163.956,169.222 164.231,169.104 164.422 C 168.941 164.686,168.786 164.685,168.465 164.419 C 167.674 163.762,168.037 163.262,168.906 163.812 M170.035 166.449 C 169.776 166.708,168.918 165.923,169.115 165.605 C 169.206 165.458,169.491 165.547,169.747 165.803 C 170.004 166.060,170.134 166.350,170.035 166.449 M147.755 167.016 C 148.031 167.736,147.986 167.778,147.356 167.384 C 147.037 167.185,146.842 166.914,146.924 166.782 C 147.164 166.394,147.559 166.505,147.755 167.016 M177.944 166.805 C 177.944 167.196,177.169 167.767,176.944 167.542 C 176.719 167.317,177.290 166.542,177.681 166.542 C 177.826 166.542,177.944 166.660,177.944 166.805 M176.630 169.185 C 176.371 169.444,176.074 169.572,175.971 169.469 C 175.715 169.213,176.531 168.367,176.848 168.559 C 176.988 168.644,176.890 168.925,176.630 169.185 M148.866 169.127 C 149.214 169.546,149.192 169.597,148.702 169.502 C 148.391 169.442,148.081 169.224,148.012 169.017 C 147.834 168.482,148.390 168.553,148.866 169.127 M198.050 171.925 C 198.050 172.279,197.464 172.658,197.249 172.443 C 197.034 172.228,197.413 171.643,197.767 171.643 C 197.922 171.643,198.050 171.770,198.050 171.925 M150.852 174.529 C 150.564 174.817,149.709 174.033,149.926 173.681 C 150.035 173.505,150.300 173.577,150.580 173.858 C 150.840 174.117,150.962 174.419,150.852 174.529 M195.835 177.287 C 195.575 177.546,195.273 177.669,195.163 177.559 C 194.875 177.271,195.660 176.415,196.012 176.633 C 196.187 176.741,196.116 177.006,195.835 177.287 M152.699 178.947 C 153.159 179.502,152.765 179.815,152.252 179.302 C 152.024 179.074,151.838 178.810,151.838 178.716 C 151.838 178.400,152.361 178.540,152.699 178.947 M194.149 181.717 C 194.149 181.811,193.962 182.075,193.734 182.303 C 193.221 182.815,192.827 182.503,193.288 181.948 C 193.625 181.541,194.149 181.401,194.149 181.717 M154.867 184.131 C 155.215 184.550,155.193 184.601,154.704 184.506 C 154.393 184.445,154.082 184.227,154.013 184.021 C 153.835 183.486,154.391 183.557,154.867 184.131 M155.953 186.532 C 155.666 186.820,154.810 186.036,155.028 185.684 C 155.136 185.508,155.401 185.580,155.682 185.861 C 155.941 186.120,156.063 186.422,155.953 186.532 M192.048 186.929 C 192.048 187.283,191.463 187.662,191.248 187.447 C 191.033 187.232,191.412 186.647,191.766 186.647 C 191.921 186.647,192.048 186.774,192.048 186.929 M191.148 188.710 C 191.148 189.082,190.269 189.769,190.060 189.560 C 189.868 189.368,190.567 188.477,190.923 188.459 C 191.047 188.452,191.148 188.566,191.148 188.710 M157.800 190.950 C 157.984 191.172,158.047 191.441,157.939 191.548 C 157.714 191.773,156.939 191.202,156.939 190.811 C 156.939 190.416,157.421 190.494,157.800 190.950 M189.047 193.812 C 189.047 194.188,188.276 194.778,188.062 194.564 C 187.865 194.367,188.462 193.578,188.822 193.560 C 188.946 193.554,189.047 193.667,189.047 193.812 M159.854 196.435 C 159.567 196.722,158.711 195.938,158.929 195.586 C 159.037 195.411,159.302 195.482,159.583 195.763 C 159.842 196.022,159.964 196.325,159.854 196.435 M160.658 197.924 C 160.940 198.658,160.879 198.755,160.390 198.350 C 159.891 197.936,159.793 197.449,160.208 197.449 C 160.355 197.449,160.558 197.663,160.658 197.924 M186.833 199.192 C 186.573 199.452,186.271 199.574,186.161 199.464 C 185.873 199.177,186.657 198.321,187.010 198.538 C 187.185 198.647,187.113 198.912,186.833 199.192 M185.746 201.200 C 185.534 201.456,185.293 201.597,185.211 201.515 C 185.128 201.432,185.234 201.156,185.446 200.900 C 185.658 200.645,185.899 200.503,185.982 200.586 C 186.065 200.668,185.959 200.945,185.746 201.200 M162.487 202.857 C 162.319 203.129,162.207 203.120,162.023 202.822 C 161.706 202.310,162.017 201.807,162.408 202.198 C 162.573 202.363,162.609 202.660,162.487 202.857 " stroke="none" fill="#3cf3fc" fill-rule="evenodd"></path><path id="path4" d="M137.485 23.031 C 173.409 23.073,232.284 23.073,268.318 23.031 C 304.351 22.989,274.959 22.954,203.001 22.954 C 131.043 22.954,101.561 22.989,137.485 23.031 M314.708 74.467 C 314.761 95.492,314.688 105.606,314.483 105.479 C 314.315 105.376,314.179 105.509,314.179 105.776 C 314.179 106.043,314.313 106.179,314.478 106.077 C 314.676 105.954,314.803 124.572,314.854 161.348 C 314.911 202.973,314.949 195.198,315.005 130.175 C 315.045 82.529,314.977 43.484,314.854 43.407 C 314.730 43.331,314.664 57.308,314.708 74.467 M91.898 154.404 C 91.840 240.453,91.904 265.527,92.183 265.806 C 92.838 266.461,105.032 266.304,105.003 265.641 C 104.988 265.328,104.918 265.267,104.828 265.491 C 104.654 265.921,93.161 266.040,92.499 265.619 C 92.200 265.430,92.108 242.722,92.048 154.371 L 91.972 43.361 91.898 154.404 M334.053 51.913 C 334.053 52.491,334.115 52.727,334.190 52.438 C 334.266 52.149,334.266 51.677,334.190 51.388 C 334.115 51.099,334.053 51.335,334.053 51.913 M112.678 104.726 C 112.798 104.920,118.233 105.026,128.000 105.026 C 137.890 105.026,143.136 104.922,143.136 104.726 C 143.136 104.530,137.829 104.426,127.814 104.426 C 117.676 104.426,112.555 104.528,112.678 104.726 M204.651 104.726 C 204.651 104.925,219.905 105.026,249.812 105.026 L 294.974 105.026 294.974 115.079 L 294.974 125.131 256.610 125.131 C 215.035 125.131,216.954 125.061,216.954 126.592 C 216.954 126.779,216.802 126.898,216.617 126.857 C 216.431 126.815,216.217 126.950,216.142 127.157 C 215.884 127.859,216.589 127.535,217.449 126.557 L 218.306 125.581 256.640 125.581 C 277.723 125.581,294.973 125.480,294.973 125.356 C 294.974 125.233,295.179 125.131,295.431 125.131 C 296.082 125.131,296.082 105.491,295.430 104.840 C 294.912 104.322,204.651 104.209,204.651 104.726 M144.109 105.836 C 144.554 106.281,145.011 106.552,145.125 106.438 C 145.362 106.201,144.110 105.026,143.622 105.026 C 143.445 105.026,143.664 105.390,144.109 105.836 M201.950 106.377 C 201.950 106.624,202.086 106.827,202.251 106.827 C 202.416 106.827,202.551 106.624,202.551 106.377 C 202.551 106.129,202.416 105.926,202.251 105.926 C 202.086 105.926,201.950 106.129,201.950 106.377 M110.129 154.815 C 110.125 197.709,110.175 203.151,110.577 203.151 C 111.194 203.151,111.124 106.809,110.506 106.603 C 110.212 106.505,110.134 116.529,110.129 154.815 M145.158 107.605 C 145.052 107.712,145.167 108.001,145.415 108.248 C 145.662 108.496,145.952 108.612,146.058 108.506 C 146.164 108.400,146.048 108.110,145.801 107.863 C 145.553 107.615,145.264 107.499,145.158 107.605 M200.144 110.885 C 199.935 111.137,199.848 111.426,199.950 111.528 C 200.168 111.746,201.050 111.075,201.050 110.691 C 201.050 110.278,200.561 110.382,200.144 110.885 M148.306 115.885 C 148.455 116.334,149.137 116.581,149.137 116.186 C 149.137 116.025,148.923 115.811,148.662 115.711 C 148.370 115.599,148.233 115.666,148.306 115.885 M198.089 115.932 C 197.905 116.153,197.842 116.422,197.949 116.529 C 198.175 116.754,198.950 116.183,198.950 115.792 C 198.950 115.397,198.468 115.475,198.089 115.932 M149.026 117.567 C 148.808 117.919,149.664 118.703,149.952 118.415 C 150.062 118.305,149.940 118.003,149.680 117.744 C 149.399 117.463,149.134 117.391,149.026 117.567 M197.149 118.230 C 197.149 118.395,197.352 118.530,197.599 118.530 C 197.847 118.530,198.050 118.395,198.050 118.230 C 198.050 118.065,197.847 117.929,197.599 117.929 C 197.352 117.929,197.149 118.065,197.149 118.230 M150.038 119.693 C 150.038 120.070,150.918 120.750,151.131 120.537 C 151.229 120.439,151.100 120.150,150.845 119.894 C 150.323 119.373,150.038 119.302,150.038 119.693 M334.059 120.780 C 334.063 121.440,334.124 121.675,334.196 121.302 C 334.268 120.929,334.265 120.388,334.190 120.102 C 334.115 119.815,334.056 120.120,334.059 120.780 M196.240 120.791 C 195.719 121.419,196.154 121.754,196.735 121.173 C 197.016 120.892,197.087 120.627,196.912 120.519 C 196.750 120.419,196.448 120.541,196.240 120.791 M195.127 122.876 C 194.861 123.178,194.849 123.358,195.085 123.503 C 195.267 123.616,195.534 123.522,195.678 123.294 C 196.227 122.427,195.804 122.106,195.127 122.876 M152.194 124.850 C 152.267 125.067,152.503 125.303,152.719 125.375 C 152.944 125.450,153.057 125.338,152.982 125.113 C 152.910 124.896,152.673 124.660,152.457 124.587 C 152.232 124.512,152.119 124.625,152.194 124.850 M194.149 124.981 C 194.149 125.229,194.368 125.431,194.635 125.431 C 195.034 125.431,195.055 125.350,194.749 124.981 C 194.543 124.734,194.324 124.531,194.262 124.531 C 194.200 124.531,194.149 124.734,194.149 124.981 M131.039 127.726 C 130.573 128.191,130.804 202.098,131.273 202.718 C 131.661 203.232,131.715 199.010,131.723 167.217 C 131.732 134.543,131.823 129.845,132.417 131.508 C 132.491 131.714,132.641 131.800,132.751 131.700 C 132.860 131.599,132.803 131.131,132.624 130.659 C 132.361 129.968,132.242 129.888,132.007 130.243 C 131.803 130.551,131.741 130.244,131.799 129.214 C 131.877 127.851,131.551 127.213,131.039 127.726 M193.086 127.852 C 192.734 128.421,193.247 128.562,193.770 128.039 C 194.238 127.571,194.238 127.532,193.780 127.532 C 193.507 127.532,193.195 127.676,193.086 127.852 M215.454 128.882 C 215.242 129.138,215.136 129.414,215.218 129.497 C 215.301 129.579,215.542 129.438,215.754 129.182 C 215.966 128.927,216.072 128.650,215.989 128.568 C 215.907 128.485,215.666 128.627,215.454 128.882 M154.111 129.596 C 153.915 129.914,154.772 130.699,155.032 130.440 C 155.130 130.341,155.000 130.051,154.744 129.794 C 154.487 129.538,154.202 129.448,154.111 129.596 M131.358 184.471 C 131.314 194.332,131.278 186.264,131.278 166.542 C 131.278 146.819,131.314 138.751,131.358 148.612 C 131.402 158.473,131.402 174.610,131.358 184.471 M155.139 131.696 C 155.139 131.841,155.341 132.128,155.589 132.333 C 156.077 132.739,156.139 132.642,155.857 131.908 C 155.664 131.405,155.139 131.250,155.139 131.696 M214.132 131.686 C 214.029 131.854,214.090 132.082,214.269 132.192 C 214.730 132.477,215.028 132.087,214.643 131.702 C 214.427 131.486,214.259 131.481,214.132 131.686 M191.193 132.834 C 190.633 133.439,191.049 133.761,191.634 133.176 C 191.893 132.916,191.991 132.635,191.852 132.550 C 191.712 132.465,191.415 132.593,191.193 132.834 M133.401 133.205 C 133.291 133.383,133.334 133.766,133.497 134.056 C 133.778 134.556,133.804 134.555,134.003 134.038 C 134.245 133.411,133.722 132.686,133.401 133.205 M213.228 134.026 C 212.960 134.727,213.244 134.886,213.789 134.341 C 214.364 133.766,214.378 133.533,213.836 133.533 C 213.606 133.533,213.332 133.755,213.228 134.026 M190.239 134.894 C 189.721 135.518,190.108 135.816,190.686 135.239 C 190.942 134.982,191.032 134.697,190.884 134.606 C 190.736 134.515,190.446 134.645,190.239 134.894 M212.124 136.119 C 211.776 136.538,211.798 136.589,212.288 136.494 C 212.599 136.433,212.910 136.215,212.978 136.009 C 213.157 135.474,212.600 135.545,212.124 136.119 M134.923 137.672 C 134.705 138.024,135.561 138.808,135.848 138.520 C 135.958 138.410,135.836 138.108,135.577 137.849 C 135.296 137.568,135.031 137.496,134.923 137.672 M211.427 137.929 C 211.173 138.592,211.386 138.747,211.825 138.219 C 212.038 137.962,212.068 137.717,211.899 137.613 C 211.743 137.517,211.531 137.659,211.427 137.929 M158.196 139.854 C 158.268 140.070,158.504 140.307,158.721 140.379 C 158.946 140.454,159.059 140.341,158.983 140.116 C 158.911 139.900,158.675 139.663,158.458 139.591 C 158.233 139.516,158.121 139.629,158.196 139.854 M188.184 139.806 C 187.956 139.950,187.863 140.219,187.978 140.404 C 188.124 140.641,188.312 140.613,188.616 140.309 C 189.337 139.588,189.052 139.256,188.184 139.806 M210.053 140.885 C 210.053 141.133,210.188 141.335,210.353 141.335 C 210.518 141.335,210.653 141.133,210.653 140.885 C 210.653 140.638,210.518 140.435,210.353 140.435 C 210.188 140.435,210.053 140.638,210.053 140.885 M159.040 141.573 C 159.040 141.885,159.688 142.536,160.000 142.536 C 160.442 142.536,160.246 142.084,159.640 141.705 C 159.310 141.499,159.040 141.439,159.040 141.573 M136.834 142.707 C 136.834 142.801,137.021 143.065,137.249 143.293 C 137.761 143.806,138.155 143.493,137.695 142.938 C 137.357 142.531,136.834 142.391,136.834 142.707 M216.662 143.981 C 216.460 144.198,216.393 144.468,216.515 144.581 C 216.637 144.694,216.797 144.617,216.870 144.411 C 216.977 144.114,224.893 144.036,255.089 144.036 C 276.035 144.036,293.173 143.935,293.173 143.811 C 293.173 143.372,217.074 143.540,216.662 143.981 M160.103 144.015 C 159.898 144.347,160.371 144.705,160.648 144.428 C 160.934 144.143,160.880 143.736,160.558 143.736 C 160.403 143.736,160.198 143.862,160.103 144.015 M186.271 144.769 C 185.639 145.231,185.597 145.536,186.164 145.536 C 186.394 145.536,186.668 145.315,186.772 145.043 C 187.026 144.381,186.898 144.310,186.271 144.769 M138.055 145.110 C 138.480 145.623,139.031 145.676,138.868 145.188 C 138.804 144.996,138.516 144.804,138.227 144.761 C 137.804 144.700,137.770 144.768,138.055 145.110 M208.291 145.939 C 207.831 146.494,208.225 146.806,208.738 146.294 C 208.966 146.066,209.152 145.802,209.152 145.708 C 209.152 145.392,208.629 145.532,208.291 145.939 M295.174 145.736 C 294.701 146.209,294.952 164.141,295.431 164.141 C 295.831 164.141,295.885 162.982,295.865 154.839 C 295.844 146.298,295.757 145.153,295.174 145.736 M161.140 146.700 C 161.140 146.845,161.343 147.131,161.590 147.337 C 162.079 147.742,162.140 147.645,161.858 146.911 C 161.666 146.409,161.140 146.254,161.140 146.700 M185.191 146.918 C 184.968 147.170,184.864 147.454,184.959 147.549 C 185.167 147.758,186.047 147.072,186.047 146.700 C 186.047 146.302,185.645 146.404,185.191 146.918 M207.159 148.007 C 206.848 148.510,207.363 148.655,207.823 148.194 C 208.233 147.785,208.231 147.737,207.803 147.737 C 207.540 147.737,207.250 147.858,207.159 148.007 M140.024 149.675 C 139.806 150.027,140.662 150.811,140.950 150.523 C 141.060 150.413,140.937 150.111,140.678 149.852 C 140.397 149.571,140.132 149.499,140.024 149.675 M163.310 151.894 C 163.459 152.343,164.141 152.590,164.141 152.195 C 164.141 152.034,163.927 151.820,163.666 151.720 C 163.374 151.608,163.236 151.675,163.310 151.894 M205.296 152.939 C 204.737 153.544,205.153 153.866,205.737 153.281 C 205.997 153.021,206.095 152.740,205.955 152.655 C 205.816 152.570,205.519 152.698,205.296 152.939 M164.030 153.576 C 163.812 153.928,164.668 154.712,164.956 154.424 C 165.066 154.314,164.943 154.012,164.684 153.753 C 164.403 153.472,164.138 153.400,164.030 153.576 M141.935 154.710 C 141.935 155.027,142.762 155.712,142.936 155.539 C 143.030 155.445,142.921 155.181,142.693 154.953 C 142.261 154.521,141.935 154.417,141.935 154.710 M182.148 154.831 C 181.797 155.052,181.781 155.182,182.071 155.429 C 182.274 155.602,182.376 155.655,182.298 155.546 C 182.219 155.437,182.389 155.170,182.675 154.953 C 183.268 154.503,182.828 154.401,182.148 154.831 M204.051 155.889 C 204.051 156.137,204.186 156.339,204.351 156.339 C 204.516 156.339,204.651 156.137,204.651 155.889 C 204.651 155.641,204.516 155.439,204.351 155.439 C 204.186 155.439,204.051 155.641,204.051 155.889 M181.290 156.840 C 180.731 157.445,181.147 157.767,181.731 157.182 C 181.991 156.922,182.089 156.641,181.949 156.556 C 181.810 156.471,181.513 156.599,181.290 156.840 M203.244 157.969 C 203.047 158.193,202.968 158.456,203.066 158.555 C 203.280 158.769,204.051 158.179,204.051 157.803 C 204.051 157.419,203.655 157.501,203.244 157.969 M166.246 158.643 C 166.255 159.103,166.808 159.774,167.011 159.570 C 167.122 159.459,166.995 159.150,166.727 158.883 C 166.460 158.615,166.244 158.508,166.246 158.643 M180.123 158.885 C 179.857 159.187,179.846 159.367,180.082 159.512 C 180.263 159.625,180.530 159.531,180.674 159.303 C 181.223 158.436,180.801 158.115,180.123 158.885 M143.925 159.577 C 143.707 159.929,144.563 160.713,144.851 160.426 C 144.961 160.316,144.838 160.013,144.579 159.754 C 144.298 159.473,144.033 159.402,143.925 159.577 M202.251 160.090 C 202.042 160.341,202.010 160.540,202.177 160.540 C 202.342 160.540,202.645 160.338,202.851 160.090 C 203.059 159.839,203.092 159.640,202.924 159.640 C 202.759 159.640,202.456 159.842,202.251 160.090 M144.936 161.704 C 144.936 161.849,145.139 162.135,145.386 162.341 C 145.875 162.746,145.936 162.649,145.654 161.915 C 145.462 161.413,144.936 161.258,144.936 161.704 M168.042 163.804 C 168.042 164.318,168.870 164.800,169.104 164.422 C 169.222 164.231,169.133 163.956,168.906 163.812 C 168.373 163.475,168.042 163.472,168.042 163.804 M236.319 164.441 C 236.025 164.898,236.050 181.504,236.346 182.521 C 236.491 183.016,238.150 183.046,265.737 183.046 L 294.974 183.046 294.974 193.098 L 294.974 203.151 255.989 203.151 C 225.073 203.151,216.977 203.073,216.870 202.776 C 216.797 202.569,216.634 202.495,216.509 202.611 C 216.385 202.727,216.492 203.031,216.747 203.287 C 217.411 203.950,294.767 204.000,295.430 203.338 C 296.083 202.685,296.084 182.684,295.431 182.934 C 295.180 183.031,294.974 182.994,294.974 182.853 C 294.974 182.711,281.897 182.631,265.871 182.675 L 236.768 182.754 236.688 173.373 C 236.636 167.195,236.510 164.145,236.319 164.441 M146.277 164.756 C 145.992 165.218,146.383 165.515,146.768 165.130 C 146.983 164.915,146.989 164.747,146.784 164.620 C 146.616 164.516,146.388 164.578,146.277 164.756 M200.350 164.941 C 200.063 165.228,200.103 165.641,200.418 165.641 C 200.565 165.641,200.764 165.439,200.859 165.191 C 201.034 164.734,200.715 164.577,200.350 164.941 M169.115 165.605 C 168.918 165.923,169.776 166.708,170.035 166.449 C 170.134 166.350,170.004 166.060,169.747 165.803 C 169.491 165.547,169.206 165.458,169.115 165.605 M146.924 166.782 C 146.842 166.914,147.037 167.185,147.356 167.384 C 147.986 167.778,148.031 167.736,147.755 167.016 C 147.559 166.505,147.164 166.394,146.924 166.782 M177.084 166.944 C 176.900 167.166,176.837 167.435,176.944 167.542 C 177.169 167.767,177.944 167.196,177.944 166.805 C 177.944 166.410,177.462 166.488,177.084 166.944 M176.189 168.843 C 175.630 169.448,176.045 169.770,176.630 169.185 C 176.890 168.925,176.988 168.644,176.848 168.559 C 176.708 168.474,176.412 168.602,176.189 168.843 M148.012 169.017 C 148.081 169.224,148.391 169.442,148.702 169.502 C 149.192 169.597,149.214 169.546,148.866 169.127 C 148.390 168.553,147.834 168.482,148.012 169.017 M198.344 170.000 C 197.825 170.625,198.207 170.928,198.785 170.350 C 199.041 170.094,199.250 169.808,199.250 169.714 C 199.250 169.381,198.718 169.548,198.344 170.000 M171.043 170.706 C 171.043 171.083,171.923 171.763,172.136 171.550 C 172.234 171.452,172.106 171.162,171.850 170.907 C 171.329 170.386,171.043 170.314,171.043 170.706 M149.337 171.843 C 148.973 172.207,149.130 172.527,149.587 172.352 C 149.835 172.257,150.038 172.058,150.038 171.911 C 150.038 171.596,149.624 171.556,149.337 171.843 M197.287 171.963 C 197.178 172.139,197.161 172.355,197.249 172.443 C 197.464 172.658,198.050 172.279,198.050 171.925 C 198.050 171.542,197.531 171.567,197.287 171.963 M149.926 173.681 C 149.709 174.033,150.564 174.817,150.852 174.529 C 150.962 174.419,150.840 174.117,150.580 173.858 C 150.300 173.577,150.035 173.505,149.926 173.681 M174.095 173.918 C 173.861 174.182,173.458 174.293,173.120 174.186 C 172.803 174.085,172.543 174.138,172.543 174.303 C 172.543 174.895,173.772 175.011,174.365 174.474 C 174.952 173.943,175.129 173.434,174.719 173.455 C 174.595 173.461,174.314 173.669,174.095 173.918 M195.949 174.944 C 195.949 175.109,196.152 175.244,196.399 175.244 C 196.647 175.244,196.849 175.109,196.849 174.944 C 196.849 174.779,196.647 174.644,196.399 174.644 C 196.152 174.644,195.949 174.779,195.949 174.944 M195.340 176.905 C 194.819 177.533,195.254 177.868,195.835 177.287 C 196.116 177.006,196.187 176.741,196.012 176.633 C 195.850 176.533,195.547 176.655,195.340 176.905 M151.838 178.716 C 151.838 178.810,152.024 179.074,152.252 179.302 C 152.765 179.815,153.159 179.502,152.699 178.947 C 152.361 178.540,151.838 178.400,151.838 178.716 M193.288 181.948 C 192.827 182.503,193.221 182.815,193.734 182.303 C 193.962 182.075,194.149 181.811,194.149 181.717 C 194.149 181.401,193.625 181.541,193.288 181.948 M154.013 184.021 C 154.082 184.227,154.393 184.445,154.704 184.506 C 155.193 184.601,155.215 184.550,154.867 184.131 C 154.391 183.557,153.835 183.486,154.013 184.021 M155.028 185.684 C 154.810 186.036,155.666 186.820,155.953 186.532 C 156.063 186.422,155.941 186.120,155.682 185.861 C 155.401 185.580,155.136 185.508,155.028 185.684 M191.285 186.967 C 191.177 187.143,191.160 187.359,191.248 187.447 C 191.463 187.662,192.048 187.283,192.048 186.929 C 192.048 186.546,191.530 186.571,191.285 186.967 M190.292 188.928 C 190.069 189.181,189.965 189.465,190.060 189.560 C 190.269 189.769,191.148 189.082,191.148 188.710 C 191.148 188.312,190.747 188.415,190.292 188.928 M156.939 190.811 C 156.939 191.202,157.714 191.773,157.939 191.548 C 158.165 191.323,157.594 190.548,157.203 190.548 C 157.058 190.548,156.939 190.666,156.939 190.811 M188.240 193.978 C 188.044 194.202,187.964 194.465,188.062 194.564 C 188.276 194.778,189.047 194.188,189.047 193.812 C 189.047 193.428,188.651 193.510,188.240 193.978 M158.929 195.586 C 158.711 195.938,159.567 196.722,159.854 196.435 C 159.964 196.325,159.842 196.022,159.583 195.763 C 159.302 195.482,159.037 195.411,158.929 195.586 M186.947 196.792 C 186.947 196.953,187.161 197.167,187.422 197.267 C 187.714 197.380,187.851 197.313,187.778 197.093 C 187.629 196.645,186.947 196.398,186.947 196.792 M159.940 197.713 C 159.940 197.858,160.143 198.144,160.390 198.350 C 160.879 198.755,160.940 198.658,160.658 197.924 C 160.465 197.422,159.940 197.267,159.940 197.713 M186.338 198.810 C 185.817 199.438,186.251 199.774,186.833 199.192 C 187.113 198.912,187.185 198.647,187.010 198.538 C 186.847 198.438,186.545 198.561,186.338 198.810 M161.281 200.765 C 160.996 201.227,161.386 201.524,161.772 201.139 C 161.987 200.924,161.992 200.756,161.787 200.629 C 161.619 200.525,161.391 200.587,161.281 200.765 M185.446 200.900 C 185.234 201.156,185.128 201.432,185.211 201.515 C 185.293 201.597,185.534 201.456,185.746 201.200 C 185.959 200.945,186.065 200.668,185.982 200.586 C 185.899 200.503,185.658 200.645,185.446 200.900 M161.944 202.164 C 161.854 202.310,161.889 202.606,162.023 202.822 C 162.207 203.120,162.319 203.129,162.487 202.857 C 162.609 202.660,162.573 202.363,162.408 202.198 C 162.240 202.030,162.036 202.015,161.944 202.164 M110.878 203.451 C 110.755 203.649,114.175 203.751,120.913 203.751 C 127.526 203.751,131.133 203.645,131.133 203.451 C 131.133 203.257,127.588 203.151,121.098 203.151 C 114.732 203.151,110.995 203.260,110.878 203.451 M163.541 203.451 C 163.541 203.645,167.042 203.751,173.443 203.751 C 179.845 203.751,183.346 203.645,183.346 203.451 C 183.346 203.257,179.845 203.151,173.443 203.151 C 167.042 203.151,163.541 203.257,163.541 203.451 M314.723 235.438 C 314.789 246.545,314.723 251.164,314.498 251.025 C 314.322 250.916,314.179 251.046,314.179 251.313 C 314.179 251.580,314.314 251.715,314.479 251.613 C 315.148 251.199,314.853 264.592,314.178 265.266 C 313.480 265.965,108.627 266.245,108.627 265.548 C 108.627 265.373,108.490 265.316,108.322 265.419 C 108.154 265.523,108.095 265.734,108.190 265.887 C 108.506 266.399,314.137 266.251,314.650 265.738 C 315.120 265.268,315.321 219.655,314.854 219.655 C 314.730 219.655,314.671 226.757,314.723 235.438 M334.059 270.218 C 334.063 270.878,334.124 271.112,334.196 270.739 C 334.268 270.366,334.265 269.826,334.190 269.539 C 334.115 269.252,334.056 269.557,334.059 270.218 M74.471 285.224 C 74.668 285.421,333.138 285.417,333.335 285.220 C 333.416 285.138,275.171 285.071,203.901 285.071 C 132.631 285.071,74.387 285.140,74.471 285.224 " stroke="none" fill="#45ccd5" fill-rule="evenodd"></path></g></svg>